<svg width="0" height="0" style="visibility: hidden; position: absolute;" aria-hidden="true">
    <symbol id="bag" viewBox="0 0 16 12" xmlns="http://www.w3.org/2000/svg" fill="none">
        <path
            d="M1.28707 4.74163H1.73771L3.07644 9.95257C3.15564 10.2612 3.33508 10.5344 3.58659 10.7296C3.8381 10.9248 4.14732 11.0308 4.46561 11.0308H11.3033C11.6215 11.0308 11.9307 10.9248 12.1822 10.7296C12.4337 10.5344 12.6133 10.2611 12.6925 9.95257L14.0312 4.74163H14.4819C14.6402 4.74163 14.7687 4.6131 14.7687 4.45457C14.7687 4.29603 14.6402 4.1675 14.4819 4.1675H11.6211L9.54468 1.1459C9.45488 1.01525 9.2762 0.982206 9.14567 1.07209C9.01514 1.16197 8.98213 1.34081 9.07193 1.47146L10.9249 4.16749H4.90709L6.75962 1.47267C6.84971 1.34202 6.81701 1.16287 6.68648 1.07267C6.55595 0.98249 6.37697 1.01523 6.28685 1.14588L4.21066 4.16628H1.2868C1.12841 4.16628 1 4.29481 1 4.45334C1 4.61203 1.12841 4.74056 1.2868 4.74056L1.28707 4.74163ZM3.81584 4.74163L3.4768 5.23514V5.23529C3.43274 5.29804 3.41563 5.37564 3.42925 5.45112C3.44273 5.5266 3.48588 5.59344 3.54903 5.63694C3.61217 5.68029 3.69 5.69666 3.76526 5.68226C3.84037 5.66801 3.90684 5.62421 3.94954 5.56055L4.51268 4.74166H11.3194L11.8822 5.56055C11.9719 5.69135 12.1506 5.72439 12.2812 5.63467C12.4118 5.54479 12.4449 5.36594 12.3551 5.23529L12.015 4.74163H13.4378L12.1366 9.80978C12.0891 9.99484 11.9814 10.1588 11.8306 10.276C11.6796 10.393 11.4943 10.4567 11.3033 10.4567H4.46563C4.27468 10.4567 4.08919 10.393 3.93835 10.276C3.78754 10.1589 3.67987 9.99486 3.63233 9.80978L2.33038 4.74163H3.81584Z"
            stroke-width="0.5" stroke-linejoin="bevel" />
        <path
            d="M7.88445 9.14387C7.96061 9.14387 8.0336 9.11356 8.08736 9.05975C8.14111 9.00595 8.1714 8.9329 8.1714 8.85681V6.34248C8.1714 6.18395 8.04299 6.05542 7.88445 6.05542C7.72606 6.05542 7.59766 6.18395 7.59766 6.34248V8.85817C7.59841 9.01625 7.72667 9.14387 7.88445 9.14387L7.88445 9.14387Z"
            stroke-width="0.5" stroke-linejoin="bevel" />
        <path
            d="M10.3979 9.14387C10.474 9.14387 10.547 9.11356 10.6008 9.05975C10.6545 9.00595 10.6848 8.9329 10.6848 8.85681V6.34248C10.6848 6.18395 10.5564 6.05542 10.3979 6.05542C10.2395 6.05542 10.1111 6.18395 10.1111 6.34248V8.85817C10.1118 9.01625 10.2401 9.14387 10.3979 9.14387L10.3979 9.14387Z"
            stroke-width="0.5" stroke-linejoin="bevel" />
        <path
            d="M5.37078 9.14387C5.44694 9.14387 5.51993 9.11356 5.57369 9.05975C5.62744 9.00595 5.65773 8.9329 5.65773 8.85681V6.34248C5.65773 6.18395 5.52932 6.05542 5.37078 6.05542C5.21239 6.05542 5.08398 6.18395 5.08398 6.34248V8.85817C5.08474 9.01625 5.213 9.14387 5.37078 9.14387L5.37078 9.14387Z"
            stroke-width="0.5" stroke-linejoin="bevel" />
    </symbol>
    <symbol id="biscuit" viewBox="0 0 20 21" xmlns="http://www.w3.org/2000/svg" fill="none">
        <path
            d="M15.5351 20.6753H3.58203C2.51767 20.6753 1.64064 19.8216 1.61715 18.7572L0.494444 12.8273V12.722C0.167067 11.763 0.00317383 10.7689 0.00317383 9.73953C0.00317383 4.55844 4.28379 0.336487 9.55869 0.336487C14.8216 0.336487 19.1142 4.55855 19.1142 9.73953C19.1142 10.7571 18.9505 11.763 18.6229 12.722V12.8273L17.5002 18.7572C17.4652 19.8216 16.5998 20.6753 15.5354 20.6753H15.5351ZM1.43029 12.7456L2.55299 18.6635V18.7103C2.55299 19.2835 3.00921 19.7395 3.58213 19.7395H15.5352C16.1083 19.7395 16.5644 19.2833 16.5644 18.7103V18.6635L17.6871 12.7456V12.7106L17.6753 12.6052L17.7104 12.5116C18.0262 11.6344 18.1781 10.6989 18.1781 9.75138C18.1781 5.08487 14.3187 1.28392 9.55871 1.28392C4.81031 1.28392 0.9393 5.08502 0.9393 9.75138C0.9393 10.6987 1.09144 11.6227 1.40707 12.5116L1.44211 12.6052L1.43036 12.7106V12.7456H1.43029Z" />
        <path
            d="M5.69908 8.18438C4.75178 8.18438 3.97976 7.41252 3.97976 6.46506C3.97976 5.51775 4.75162 4.74574 5.69908 4.74574C6.64639 4.74574 7.4184 5.5176 7.4184 6.46506C7.4184 7.41236 6.64654 8.18438 5.69908 8.18438ZM5.69908 5.6932V5.6934C5.41911 5.6934 5.1604 5.84271 5.02042 6.0852C4.88044 6.3275 4.88044 6.62633 5.02042 6.86878C5.16041 7.11107 5.41911 7.26058 5.69908 7.26058C5.97885 7.26058 6.23756 7.11107 6.37754 6.86878C6.51752 6.62629 6.51752 6.32745 6.37754 6.0852C6.23755 5.84271 5.97885 5.6934 5.69908 5.6934V5.6932ZM10.0613 10.6873C9.46492 10.6873 8.97363 10.1961 8.97363 9.59963C8.97363 9.00321 9.4649 8.51194 10.0613 8.51194C10.3186 8.51194 10.5291 8.72242 10.5291 8.9797C10.5291 9.23698 10.3186 9.44747 10.0613 9.44747C9.97948 9.44747 9.90918 9.51757 9.90918 9.59961C9.90918 9.68146 9.97928 9.75175 10.0613 9.75175C10.3186 9.75175 10.5291 9.96224 10.5291 10.2195C10.5291 10.4768 10.3186 10.6873 10.0613 10.6873V10.6873ZM10.4357 2.32515C9.8393 2.32515 9.34801 1.83388 9.34801 1.23745C9.34801 0.98017 9.5585 0.769684 9.81578 0.769684C10.0731 0.769684 10.2835 0.98017 10.2835 1.23745C10.2835 1.31929 10.3536 1.38959 10.4357 1.38959C10.693 1.38959 10.9035 1.60008 10.9035 1.85736C10.9035 2.11464 10.693 2.32513 10.4357 2.32513L10.4357 2.32515ZM17.9209 15.2252C16.845 15.2252 16.2951 14.4649 15.8625 13.8568C15.4297 13.2486 15.1374 12.8744 14.5643 12.8744C13.9912 12.8744 13.6988 13.2486 13.2662 13.8568C12.8334 14.4649 12.2838 15.2252 11.2077 15.2252C10.1318 15.2252 9.58196 14.4649 9.14927 13.8568C8.71655 13.2486 8.42425 12.8744 7.85113 12.8744C7.278 12.8744 6.98566 13.2486 6.55298 13.8568C6.12025 14.4649 5.57066 15.2252 4.49453 15.2252C3.41861 15.2252 2.86877 14.4649 2.43609 13.8568C2.00337 13.2486 1.71106 12.8744 1.13794 12.8744V11.9387C2.21386 11.9387 2.7637 12.699 3.19638 13.3072C3.62906 13.9154 3.92141 14.2895 4.49453 14.2895C5.06766 14.2895 5.36 13.9153 5.79268 13.3072C6.22537 12.699 6.775 11.9387 7.85113 11.9387C8.92705 11.9387 9.47689 12.699 9.90957 13.3072C10.3422 13.9154 10.6346 14.2895 11.2077 14.2895C11.7808 14.2895 12.0732 13.9153 12.5059 13.3072C12.9386 12.699 13.4882 11.9387 14.5643 11.9387C15.6402 11.9387 16.1901 12.699 16.6228 13.3072C17.0554 13.9154 17.3478 14.2895 17.9209 14.2895V15.2252Z" />
    </symbol>
    <symbol id="breakfast" viewBox="0 0 25 13" xmlns="http://www.w3.org/2000/svg" fill="none">
        <path
            d="M15.1972 0.0528564H9.80241C4.88313 0.0528564 0.881104 4.05483 0.881104 8.97417V9.37414C0.881104 11.3446 2.48435 12.9474 4.45437 12.9474H20.5458C22.5158 12.9474 24.119 11.3444 24.119 9.37414V8.97417C24.119 4.05488 20.1169 0.0528564 15.1972 0.0528564H15.1972ZM23.2217 9.37381C23.2217 10.8495 22.0213 12.0498 20.5457 12.0498H4.45426C2.97859 12.0498 1.77825 10.8495 1.77825 9.37381V8.97385C1.77825 5.07345 4.57672 1.81793 8.27009 1.10043V2.95503C8.27009 3.20293 8.47072 3.40377 8.71883 3.40377C8.96674 3.40377 9.16757 3.20314 9.16757 2.95503V0.982232C9.37778 0.96562 9.58819 0.94986 9.80247 0.94986H11.8596V2.95499C11.8596 3.20289 12.0602 3.40373 12.3083 3.40373C12.5562 3.40373 12.757 3.2031 12.757 2.95499V0.94986H15.1979C15.2827 0.94986 15.3649 0.95987 15.4488 0.962426V2.95501C15.4488 3.20292 15.6495 3.40375 15.8976 3.40375C16.1455 3.40375 16.3463 3.20313 16.3463 2.95501V1.04165C20.2265 1.60196 23.222 4.94057 23.222 8.97394L23.2217 9.37381Z" />
        <path
            d="M18.5657 10.582H13.1821C12.9342 10.582 12.7334 10.7826 12.7334 11.0307C12.7334 11.2786 12.934 11.4795 13.1821 11.4795H18.5657C18.8136 11.4795 19.0144 11.2789 19.0144 11.0307C19.0144 10.7826 18.8138 10.582 18.5657 10.582Z" />
    </symbol>
    <symbol id="cup" viewBox="0 0 85 101" xmlns="http://www.w3.org/2000/svg" fill="none">
        <path
            d="M18.854 19.522C17.75 19.522 16.854 18.626 16.854 17.522V2.11804C16.854 1.01404 17.75 0.118042 18.854 0.118042C19.958 0.118042 20.854 1.01404 20.854 2.11804V17.522C20.854 18.627 19.959 19.522 18.854 19.522Z" />
        <path
            d="M30.6299 19.522C29.5259 19.522 28.6299 18.626 28.6299 17.522V2.11804C28.6299 1.01404 29.5259 0.118042 30.6299 0.118042C31.7339 0.118042 32.6299 1.01404 32.6299 2.11804V17.522C32.6299 18.627 31.7339 19.522 30.6299 19.522Z" />
        <path
            d="M42.686 19.522C41.582 19.522 40.686 18.626 40.686 17.522V2.11804C40.686 1.01404 41.582 0.118042 42.686 0.118042C43.79 0.118042 44.686 1.01404 44.686 2.11804V17.522C44.686 18.627 43.79 19.522 42.686 19.522Z" />
        <path
            d="M59.54 100.004H1.99902C0.895023 100.004 -0.000976562 99.108 -0.000976562 98.004C-0.000976562 96.9 0.895023 96.004 1.99902 96.004H59.54C60.644 96.004 61.54 96.9 61.54 98.004C61.54 99.108 60.645 100.004 59.54 100.004Z" />
        <path
            d="M66.465 70.111H60.219V66.111H66.465C73.971 66.111 80.077 60.003 80.077 52.495C80.077 44.988 73.971 38.88 66.465 38.88H60.219V34.88H66.465C76.177 34.88 84.077 42.782 84.077 52.495C84.077 62.209 76.177 70.111 66.465 70.111Z" />
        <path
            d="M30.77 92.949C13.803 92.949 -0.000976562 79.144 -0.000976562 62.177V24.792H61.54V62.177C61.54 79.145 47.736 92.949 30.77 92.949ZM3.99902 28.792V62.177C3.99902 76.94 16.008 88.949 30.77 88.949C45.532 88.949 57.54 76.939 57.54 62.177V28.792H3.99902Z" />
    </symbol>
    <symbol id="drink" viewBox="0 0 17 31" xmlns="http://www.w3.org/2000/svg" fill="none">
        <path
            d="M8.39741 29.4594C8.39741 29.7363 8.17288 29.9609 7.8959 29.9609H1.82251C0.955039 29.9609 0.249268 29.2551 0.249268 28.3876V13.1705C0.249268 10.7893 1.68975 8.63856 3.8689 7.71112V2.7556C3.68312 2.58079 3.57129 2.3339 3.57129 2.06824V0.94378C3.57129 0.542928 3.82598 0.184705 4.20513 0.0523769C4.30579 0.0175576 4.40967 7.62939e-05 4.51499 7.62939e-05H7.84568C7.951 7.62939e-05 8.05488 0.0175576 8.15447 0.0520903C8.53468 0.184848 8.78938 0.543071 8.78938 0.943851V2.06831C8.78938 2.33397 8.67754 2.58079 8.49177 2.75567V7.71119C9.69905 8.22531 10.7075 9.12768 11.3559 10.2822C11.4915 10.5237 11.4057 10.8295 11.1642 10.9651C10.9226 11.1006 10.617 11.0148 10.4813 10.7734C9.89285 9.72541 8.94836 8.92722 7.82189 8.52586C7.62207 8.45472 7.48874 8.26551 7.48874 8.05344V3.01202H7.37476C7.09778 3.01202 6.87325 2.78748 6.87325 2.51051C6.87325 2.23353 7.09778 2.00899 7.37476 2.00899H7.78636V1.00303H4.57431V2.00899H4.98598C5.26296 2.00899 5.48749 2.23353 5.48749 2.51051C5.48749 2.78748 5.26296 3.01202 4.98598 3.01202H4.87192V8.05337C4.87192 8.26543 4.73852 8.45458 4.53877 8.52579C2.57299 9.22633 1.25222 11.093 1.25222 13.1705V28.3876C1.25222 28.702 1.50799 28.9578 1.82244 28.9578H7.89583C8.17288 28.9578 8.39741 29.1823 8.39741 29.4594ZM4.12209 10.1175C3.04312 10.7324 2.37281 11.8811 2.37281 13.1152V26.7589C2.37281 27.0359 2.59735 27.2604 2.87433 27.2604C3.15131 27.2604 3.37584 27.0359 3.37584 26.7589V13.1152C3.37584 12.2406 3.85206 11.4259 4.61873 10.9889C4.85939 10.8517 4.94321 10.5455 4.80608 10.3049C4.66895 10.0642 4.36267 9.98025 4.12209 10.1175ZM14.3851 19.0553C14.1101 19.0881 13.9138 19.3377 13.9466 19.6127C14.0005 20.0647 13.8476 20.5193 13.516 20.8928C13.104 21.3569 12.4857 21.634 11.8621 21.634C11.5852 21.634 11.3606 21.8586 11.3606 22.1356C11.3606 22.4125 11.5852 22.6371 11.8621 22.6371C12.768 22.6371 13.6667 22.2339 14.2661 21.5587C14.7907 20.9677 15.0309 20.2345 14.9425 19.4939C14.9098 19.2188 14.6603 19.0222 14.3851 19.0553ZM15.6652 22.9196C14.8279 23.8628 13.6212 24.4704 12.3637 24.5996V29.9969H13.9604C14.2374 29.9969 14.4619 30.2214 14.4619 30.4984C14.4619 30.7754 14.2374 30.9999 13.9604 30.9999H11.8707C11.8678 31 11.865 31 11.8621 31C11.8593 31 11.8565 31 11.8536 30.9999H9.76389C9.48691 30.9999 9.26238 30.7754 9.26238 30.4984C9.26238 30.2214 9.48691 29.9969 9.76389 29.9969H11.3607V24.5996C10.1031 24.4704 8.89642 23.8628 8.05904 22.9195C7.23942 21.996 6.86372 20.8532 7.00135 19.7015L7.36716 16.6384C7.36781 16.6317 7.36867 16.6251 7.36953 16.6185L7.78292 13.157C7.81301 12.9049 8.02694 12.715 8.28092 12.715H15.4435C15.6975 12.715 15.9114 12.9049 15.9415 13.157L16.7232 19.7016C16.8606 20.8533 16.4849 21.9962 15.6652 22.9196ZM15.7271 19.8204L14.9982 13.718H8.72605L8.40049 16.4437C9.74992 17.2599 11.9988 17.216 13.891 16.3072C14.1405 16.1872 14.4403 16.2924 14.5602 16.542C14.6801 16.7917 14.575 17.0913 14.3253 17.2113C12.2795 18.194 9.91957 18.2878 8.27304 17.5113L7.99728 19.8204C7.89418 20.6835 8.18248 21.5475 8.80915 22.2536C9.56995 23.1106 10.7112 23.6223 11.8621 23.6223C13.013 23.6223 14.1543 23.1106 14.9151 22.2536C15.5417 21.5477 15.8302 20.6835 15.7271 19.8204Z" />
    </symbol>
    <symbol id="frozen" viewBox="0 0 19 21" xmlns="http://www.w3.org/2000/svg" fill="none">
        <path
            d="M0.397356 13.4305C0.459753 13.2227 0.667509 13.0979 0.875286 13.1603L2.55877 13.6175L4.22136 12.7032L2.18476 11.5187C1.99774 11.4148 1.93534 11.1861 2.03922 10.9991C2.1431 10.8121 2.37177 10.7497 2.55879 10.8536L4.99035 12.2667L8.75196 10.1885L5.21885 7.79858L2.82894 9.19098C2.76654 9.23247 2.70432 9.25338 2.64192 9.25338C2.5173 9.25338 2.39251 9.19098 2.30937 9.06636C2.20549 8.87935 2.26789 8.65067 2.45491 8.54679L4.53316 7.34137L2.89132 6.23982L1.06245 6.75939C1.02097 6.75939 1.00006 6.78014 0.958576 6.78014C0.792299 6.78014 0.646763 6.67625 0.584541 6.50998C0.522144 6.30222 0.646942 6.09429 0.854696 6.03205L2.06012 5.6995L1.06266 5.03441C0.896379 4.90979 0.833986 4.68112 0.958776 4.49413C1.0834 4.32785 1.31207 4.26546 1.49907 4.39025L2.37194 4.97222L2.12253 3.91236C2.08105 3.7046 2.20566 3.49667 2.41342 3.45519C2.62118 3.4137 2.82911 3.53832 2.87059 3.74608L3.30702 5.61642L4.88646 6.67628L5.03199 4.3486C5.05274 4.14084 5.21901 3.97456 5.42677 3.9953C5.63453 4.01605 5.8008 4.18232 5.78006 4.39008L5.61379 7.17494L9.10507 9.50262V4.86814L6.69441 3.35111C6.50739 3.24723 6.46574 2.99781 6.56979 2.83153C6.67367 2.64451 6.92308 2.60286 7.08936 2.70691L9.10526 3.9538V2.31197L7.67134 1.02343C7.50506 0.877897 7.50506 0.649398 7.65059 0.483143C7.79613 0.316866 8.02463 0.316866 8.19088 0.462401L9.10523 1.29359L9.10506 0.753301C9.10506 0.545541 9.27133 0.379269 9.47909 0.379269C9.68685 0.379269 9.85312 0.545546 9.85312 0.753301V1.29359L10.7467 0.483114C10.9132 0.316837 11.1626 0.337751 11.3079 0.483114C11.4535 0.628647 11.4325 0.877889 11.2872 1.0234L9.87402 2.31194V3.95377L12.0145 2.68613C12.2015 2.58225 12.4302 2.64464 12.5341 2.81075C12.638 2.99776 12.5756 3.22644 12.4095 3.33032L9.87403 4.82664V9.56512L13.1785 7.73626L12.9707 5.0138C12.95 4.80604 13.1162 4.61903 13.324 4.59811C13.5318 4.57737 13.7188 4.74365 13.7397 4.95141L13.906 7.32056L15.7972 6.28141L16.3792 4.49419C16.4416 4.28643 16.6701 4.18238 16.8571 4.24478C17.0649 4.30717 17.169 4.53567 17.1066 4.7227L16.774 5.7411L17.5845 5.30467C17.7715 5.20079 18.0002 5.26318 18.1041 5.4502C18.2079 5.63722 18.1455 5.86589 17.9585 5.96978L17.1688 6.40621L18.4363 6.71784C18.6442 6.7595 18.7688 6.96726 18.7066 7.17502C18.6651 7.34129 18.4988 7.46591 18.3326 7.46591H18.2494L16.1712 6.98798L14.3216 8.00638L16.3167 9.23251C16.5038 9.33639 16.5454 9.5858 16.4414 9.75208C16.379 9.8767 16.2336 9.9391 16.1088 9.9391C16.0464 9.9391 15.9633 9.91836 15.901 9.8767L13.5319 8.4219L10.2275 10.2508L13.1369 12.2043L15.7348 10.8951C15.9218 10.7913 16.1505 10.8744 16.2543 11.0614C16.3582 11.2484 16.2751 11.4771 16.0881 11.581L13.8852 12.6825L15.9011 14.0333L17.9793 13.6593C18.1871 13.6178 18.395 13.7631 18.4158 13.9711C18.4573 14.1788 18.3119 14.3868 18.104 14.4075L16.8154 14.6362L17.709 15.2389C17.8753 15.3635 17.9377 15.5922 17.8129 15.7792C17.7298 15.883 17.6259 15.9454 17.5011 15.9454C17.4179 15.9454 17.3555 15.9247 17.2933 15.883L16.4828 15.3427L16.8569 16.6313C16.9193 16.839 16.7945 17.047 16.5867 17.1092C16.5452 17.1092 16.5243 17.13 16.4828 17.13C16.3166 17.13 16.171 17.0261 16.1088 16.8598L15.4854 14.6984L13.5526 13.4099L13.7396 15.8829C13.7604 16.0906 13.5941 16.2777 13.3864 16.2986H13.3656C13.1579 16.2986 12.9916 16.153 12.9916 15.9453L12.7629 12.8695L9.87418 10.9159V15.2801L12.3889 16.5687C12.5759 16.6726 12.6591 16.9012 12.5552 17.0883C12.4513 17.2753 12.2226 17.3584 12.0356 17.2545L9.87419 16.153V18.0233L11.4744 19.8314C11.6199 19.9977 11.599 20.2262 11.4329 20.3717C11.2666 20.5172 11.0381 20.4963 10.8926 20.3302L9.87422 19.1665V20.268C9.87422 20.4758 9.70794 20.642 9.50019 20.642C9.29243 20.642 9.12615 20.4758 9.12615 20.268V19.2081L8.17016 20.3304C8.08703 20.4135 7.98315 20.455 7.87927 20.455C7.79613 20.455 7.71299 20.4343 7.62985 20.3719C7.46358 20.2264 7.44284 19.9979 7.58837 19.8316L9.12634 18.0235V16.2154L7.08973 17.2545C7.02733 17.2753 6.96511 17.296 6.92345 17.296C6.77792 17.296 6.6533 17.2129 6.5909 17.0883C6.48702 16.9012 6.57016 16.6726 6.75718 16.5687L9.14709 15.3633L9.14692 10.8745L5.42696 12.9318L5.55158 15.7167C5.55158 15.9245 5.40604 16.1115 5.17755 16.1115H5.15681C4.94905 16.1115 4.78277 15.9452 4.78277 15.7374L4.67889 13.3268L2.97483 14.262L2.45526 16.2779C2.41377 16.4442 2.24749 16.5688 2.08122 16.5688C2.06048 16.5688 2.01882 16.5688 1.97734 16.548C1.76958 16.4857 1.64479 16.2779 1.70719 16.0909L2.01849 14.7814L1.22877 15.2178C1.16637 15.2593 1.10415 15.2593 1.04175 15.2593C0.917135 15.2593 0.771601 15.1969 0.709204 15.0723C0.605324 14.8853 0.667721 14.6566 0.854736 14.5527L1.60298 14.137L0.667751 13.8876C0.459993 13.8461 0.335199 13.6384 0.397598 13.4306L0.397356 13.4305Z" />
    </symbol>
    <symbol id="grocery" viewBox="0 0 23 23" xmlns="http://www.w3.org/2000/svg" fill="none">
        <path
            d="M10.228 21.8256C10.2173 21.8256 10.2067 21.8256 10.194 21.8236C7.69589 21.6509 5.63186 20.6362 4.05901 18.8071C1.49494 15.8217 0.367724 10.7916 0.88223 4.64378C0.903564 4.38066 1.11613 4.1631 1.39383 4.2C4.85009 4.402 8.63737 6.41755 11.2795 9.46021C13.6845 12.2282 14.8649 15.4688 14.6087 18.5906C14.5864 18.8557 14.3622 19.0479 14.0844 19.0344C13.8175 19.0121 13.6184 18.7761 13.6397 18.5111C13.8746 15.6537 12.7756 12.6654 10.5455 10.0965C8.19209 7.38483 4.88629 5.54492 1.81116 5.20917C1.42369 10.7985 2.50058 15.5052 4.79271 18.1754C6.18882 19.8006 8.02874 20.7036 10.2576 20.855C10.5246 20.8744 10.7265 21.1054 10.7091 21.3724C10.6954 21.6288 10.4819 21.8258 10.2274 21.8258L10.228 21.8256Z" />
        <path
            d="M12.7727 22.6856C12.5503 22.6856 12.3504 22.5322 12.2999 22.306C11.129 17.0931 5.53655 10.3155 3.16599 8.02609C2.97284 7.84158 2.96688 7.53483 3.15235 7.3407C3.33878 7.14851 3.64742 7.1437 3.83867 7.32706C6.2755 9.68339 12.0274 16.6671 13.2456 22.0921C13.3048 22.3552 13.1397 22.6116 12.8787 22.6747C12.8437 22.6824 12.8078 22.6854 12.7728 22.6854L12.7727 22.6856Z" />
        <path
            d="M14.1727 17.5361C13.9474 17.5361 13.7464 17.3789 13.698 17.1496C13.6426 16.8874 13.8115 16.6301 14.0737 16.5747C21.3861 15.0446 21.4358 5.07865 21.1844 1.32502C16.9611 1.78322 12.5573 5.0202 10.57 9.18506C10.4545 9.4278 10.1631 9.52871 9.92251 9.41415C9.68073 9.29864 9.57791 9.00939 9.69342 8.76759C11.8983 4.1453 16.9069 0.59069 21.6033 0.316142C21.8616 0.290964 22.0945 0.498726 22.1149 0.75992C22.8954 10.067 19.9634 16.3339 14.2721 17.526C14.238 17.5318 14.2059 17.5358 14.1731 17.5358L14.1727 17.5361Z" />
        <path
            d="M12.7717 12.9982C12.6883 12.9982 12.6038 12.9778 12.5271 12.9321C12.2961 12.7952 12.2184 12.5 12.3543 12.2661C14.5874 8.45547 17.6662 4.8804 19.1914 3.40483C19.3855 3.22128 19.6925 3.2232 19.8777 3.41847C20.0632 3.60875 20.0594 3.91955 19.866 4.10479C18.3796 5.54071 15.3757 9.03091 13.1913 12.7599C13.1 12.9104 12.9379 12.9979 12.7719 12.9979L12.7717 12.9982Z" />
    </symbol>
    <symbol id="meats" viewBox="0 0 23 21" xmlns="http://www.w3.org/2000/svg" fill="none">
        <path
            d="M19.1165 4.87284C15.647 1.78393 11.7545 0.176178 7.60771 0.176178H6.93069C5.36514 0.260834 4.22266 0.895398 3.46119 1.82636C1.81101 2.75732 0.837788 4.57664 0.964672 6.56522C1.09156 8.5538 2.27629 10.1618 4.13798 10.8811C5.23803 11.3041 6.16904 11.7274 6.76138 12.4888C7.4384 13.3351 8.03074 14.5621 8.45382 16.1276C9.17304 18.4971 11.1194 20.2742 13.5313 20.655C13.9121 20.6972 14.2505 20.7396 14.5891 20.7396C16.5777 20.7396 18.3973 19.8087 19.582 18.1162L19.7088 17.9469C20.1319 17.3546 20.4705 16.6776 20.7242 16.0006C22.967 12.5313 22.3322 7.74993 19.1165 4.87259L19.1165 4.87284ZM7.01532 1.06471H7.64991C11.5849 1.06471 15.2664 2.58807 18.5663 5.54986C21.5281 8.21546 22.1204 12.6586 19.8779 15.8739L19.751 16.0007C18.7778 17.3548 17.2545 18.1586 15.5621 18.1586C13.5735 18.1586 11.2038 16.9739 10.4 14.3505C9.93449 12.7427 9.29993 11.4734 8.58048 10.5849C7.86126 9.69632 6.80342 9.23081 5.66089 8.80779C3.41831 7.96145 2.9106 5.93067 3.16437 4.44952C3.24903 3.81493 3.54521 3.13791 4.01071 2.54557C4.01071 2.54557 4.01071 2.50335 4.05292 2.50335C4.68792 1.69905 5.66113 1.10665 7.01518 1.06445L7.01532 1.06471ZM13.7003 19.8938C11.5846 19.5554 9.8922 18.032 9.29987 15.9588C8.79216 14.3087 8.19982 12.9546 7.43811 12.0239C6.71889 11.0929 5.61862 10.6276 4.47632 10.1621C2.91077 9.52753 1.9376 8.25817 1.85292 6.56556C1.8107 5.6346 2.02223 4.7885 2.44526 4.02685C2.44526 4.11151 2.40304 4.15372 2.40304 4.23837C2.06464 6.14232 2.91074 8.55421 5.40726 9.52737C6.46511 9.95042 7.39584 10.3313 7.94598 11.0507C8.623 11.8546 9.17314 13.0393 9.59616 14.5627C10.3998 17.1861 12.8117 18.9631 15.5618 18.9631C16.6197 18.9631 17.5929 18.7092 18.4814 18.2015C17.2543 19.5977 15.5194 20.1901 13.7001 19.8939L13.7003 19.8938Z" />
        <path
            d="M6.08434 7.7073C7.3115 8.17279 8.58085 8.72272 9.42696 9.82299C10.2309 10.8384 10.9078 12.2349 11.4155 13.9695C12.0501 16.0852 13.9121 17.0159 15.5198 17.0159C16.2815 17.0159 17.7624 16.8044 18.8202 15.3235L18.9049 15.1966C20.8088 12.4463 20.3436 8.59625 17.7624 6.3113C14.6313 3.51859 11.2038 2.12234 7.56535 2.12234H6.97301C5.23815 2.207 4.39204 3.47639 4.22273 4.53423C4.09586 5.63428 4.47669 7.07278 6.08448 7.70754L6.08434 7.7073ZM5.11112 4.70308C5.19578 4.32224 5.49196 3.05289 7.0575 2.96821H7.60764C11.0349 2.96821 14.2927 4.32225 17.2546 6.94565C19.4972 8.97672 19.9202 12.2769 18.27 14.7314L18.1854 14.8583C17.3391 16.0007 16.1968 16.2123 15.6044 16.2123C14.3351 16.2123 12.8117 15.4507 12.304 13.7582C11.7538 11.8965 11.0346 10.4156 10.1461 9.31556C9.13068 8.0462 7.77664 7.45381 6.42265 6.9461C4.98398 6.35353 5.06861 5.08418 5.11087 4.70329L5.11112 4.70308Z" />
        <path
            d="M15.6891 14.5621C16.9163 14.5621 17.9317 13.5467 17.9317 12.3196C17.9317 11.0924 16.9163 10.077 15.6891 10.077C14.462 10.077 13.4465 11.0924 13.4465 12.3196C13.4465 13.5465 14.4622 14.5621 15.6891 14.5621ZM15.6891 10.9233C16.4508 10.9233 17.0853 11.5579 17.0853 12.3196C17.0853 13.0812 16.4508 13.7158 15.6891 13.7158C14.9275 13.7158 14.2929 13.0812 14.2929 12.3196C14.2929 11.5579 14.9275 10.9233 15.6891 10.9233Z" />
    </symbol>
    <symbol id="milk" viewBox="0 0 19 29" xmlns="http://www.w3.org/2000/svg" fill="none">
        <path fill-rule="evenodd" clip-rule="evenodd"
            d="M18.1166 28.0399H0.883984C0.657496 28.0399 0.473665 27.856 0.473665 27.6295V9.59698C0.470984 9.54405 0.478579 9.48932 0.498458 9.43594C0.504712 9.41852 0.512307 9.40176 0.520794 9.38568L2.93554 4.55613V1.37052C2.93554 1.14381 3.11914 0.960205 3.34586 0.960205H15.6546C15.8813 0.960205 16.0649 1.14381 16.0649 1.37052V4.55613L18.4835 9.39306C18.5119 9.45001 18.5268 9.51278 18.5268 9.57644V27.6296C18.5268 27.8561 18.343 28.0399 18.1165 28.0399L18.1166 28.0399ZM3.75618 1.78069V4.24238H15.2444V1.78069H3.75618ZM12.9394 9.16617L14.991 5.06321H3.59944L1.54785 9.16617H12.9394ZM15.6548 5.57047L13.6035 9.67342V27.2194H17.7064V9.67342L15.6548 5.57047ZM1.29443 9.98677V27.2194H12.7826V9.98677H1.29443ZM3.75612 12.859H10.3211C10.5478 12.859 10.7314 13.0426 10.7314 13.2693V17.3722C10.7314 17.5987 10.5478 17.7826 10.3211 17.7826H3.75612C3.52963 17.7826 3.34602 17.5987 3.34602 17.3722V13.2693C3.34602 13.0426 3.52963 12.859 3.75612 12.859ZM4.16644 13.6796V16.9619H9.91083V13.6796H4.16644ZM3.75612 21.0651C3.52963 21.0651 3.34602 20.8815 3.34602 20.6548C3.34602 20.4283 3.52963 20.2445 3.75612 20.2445H10.3211C10.5478 20.2445 10.7314 20.4283 10.7314 20.6548C10.7314 20.8815 10.5478 21.0651 10.3211 21.0651H3.75612ZM5.39738 24.3474C5.1709 24.3474 4.98706 24.1638 4.98706 23.9373C4.98706 23.7106 5.17089 23.527 5.39738 23.527H8.6799C8.90639 23.527 9.09 23.7106 9.09 23.9373C9.09 24.1638 8.9064 24.3474 8.6799 24.3474H5.39738Z" />
    </symbol>
    <symbol id="pet" viewBox="0 0 28 20" xmlns="http://www.w3.org/2000/svg" fill="none">
        <path
            d="M26.5564 14.6838H25.7779L23.5737 4.76566C23.5464 4.64523 23.4731 4.54201 23.3682 4.47869C23.264 4.41441 23.1383 4.39458 23.0188 4.42517C22.464 4.56734 21.8547 4.70139 21.0807 4.85145L19.0184 3.47989L19.0181 2.58099C19.0181 2.33106 18.8153 2.12843 18.5656 2.12843H15.3283L14.3207 1.11913C14.1441 0.942546 13.8571 0.942546 13.6805 1.11913L12.6719 2.1277H10.5761C10.4557 2.1277 10.3408 2.17573 10.2557 2.25984L9.24736 3.26915H8.29323C8.1728 3.26915 8.05787 3.31718 7.9728 3.40129L6.59574 4.77835C6.04712 4.67346 5.50208 4.55924 4.98262 4.42447C4.86315 4.39341 4.73722 4.41348 4.63208 4.4768C4.52719 4.54108 4.45287 4.64526 4.42564 4.76473L2.22229 14.6841H1.44377C1.19384 14.6841 0.991211 14.887 0.991211 15.1366V18.5605C0.991211 18.8105 1.19408 19.0131 1.44377 19.0131H26.5566C26.8065 19.0131 27.0091 18.8102 27.0091 18.5605V15.1366C27.0091 14.886 26.8065 14.6841 26.5566 14.6841L26.5564 14.6838ZM8.48065 4.17415H9.43478C9.55521 4.17415 9.67015 4.12612 9.75521 4.04201L10.7638 3.03343H12.8596C12.98 3.03343 13.095 2.98541 13.18 2.90129L14.0001 2.07929L14.8211 2.90032C14.9062 2.98538 15.0211 3.03246 15.1415 3.03246H18.1135V3.72135C18.1135 3.87261 18.1895 4.01382 18.3155 4.09793L19.7756 5.06925C19.6516 5.08837 19.5286 5.11178 19.4036 5.12994C19.2072 5.15886 19.0098 5.18419 18.8125 5.20952C18.4368 5.2585 18.0602 5.30103 17.6827 5.33807C17.5006 5.35623 17.3178 5.37439 17.136 5.38873C16.7331 5.42218 16.3303 5.44751 15.9265 5.4683C15.7671 5.47642 15.607 5.48741 15.4476 5.49362C14.9678 5.51274 14.488 5.51991 14.0091 5.52086C13.9277 5.52086 13.8462 5.52445 13.7657 5.52349C13.1982 5.52086 12.6314 5.50438 12.0665 5.47546C11.9669 5.46997 11.8682 5.46089 11.7695 5.45468C11.3186 5.42839 10.8687 5.39589 10.4216 5.35241C10.2388 5.3352 10.0577 5.3125 9.8766 5.29267C9.51173 5.25205 9.14684 5.20856 8.78581 5.15695C8.58653 5.12899 8.38845 5.09721 8.19108 5.06543C8.01903 5.03819 7.84986 5.00569 7.67878 4.97583L8.48065 4.17415ZM5.20994 5.41548C5.68258 5.52874 6.16695 5.63005 6.65123 5.7187C7.22877 5.83458 7.81445 5.9359 8.40486 6.02383C8.86746 6.09265 9.33648 6.14593 9.80535 6.19754C9.93199 6.21116 10.057 6.231 10.1838 6.24366C10.7117 6.29623 11.244 6.33326 11.7781 6.36409C11.8478 6.36768 11.9166 6.3758 11.9862 6.37938C12.5374 6.4083 13.0925 6.42096 13.6493 6.42646C13.7018 6.42646 13.7535 6.43004 13.8058 6.43004C13.871 6.43004 13.9353 6.43458 13.9996 6.43458C15.7314 6.43458 17.4669 6.31319 19.1823 6.07879C19.2122 6.07521 19.2421 6.07234 19.2719 6.06804C19.8206 5.99205 20.3656 5.90149 20.9087 5.80185C20.9623 5.79181 21.0165 5.7856 21.0698 5.77556C21.7434 5.64701 22.2927 5.53112 22.7897 5.41428L24.8492 14.6834L3.15028 14.6836L5.20994 5.41548ZM26.1038 18.1071H1.89635V15.5886H26.1032L26.1038 18.1071Z" />
        <path
            d="M17.5938 7.35928C16.9429 7.35928 16.3609 7.73132 16.0765 8.29714H11.9222C11.6379 7.73132 11.0558 7.35928 10.4049 7.35928C9.46604 7.35928 8.70215 8.12342 8.70215 9.06202C8.70215 9.39797 8.80346 9.72296 8.98817 9.99988C8.80346 10.2768 8.70215 10.6018 8.70215 10.9377C8.70215 11.8766 9.46629 12.6405 10.4049 12.6405C11.0558 12.6405 11.6378 12.2684 11.9222 11.7026H16.0765C16.3609 12.2684 16.9429 12.6405 17.5938 12.6405C18.5327 12.6405 19.2966 11.8763 19.2966 10.9377C19.2966 10.6018 19.1953 10.2768 19.0106 9.99988C19.1953 9.72294 19.2966 9.39797 19.2966 9.06202C19.2968 8.12318 18.5327 7.35928 17.5938 7.35928ZM18.1155 10.3413C18.2937 10.4971 18.3917 10.7079 18.3917 10.938C18.3917 11.3769 18.034 11.7356 17.5941 11.7356C17.2338 11.7356 16.9179 11.4902 16.8263 11.1373C16.7747 10.9373 16.5946 10.7977 16.3881 10.7977H11.6118C11.4054 10.7977 11.2252 10.937 11.1736 11.1373C11.0821 11.4904 10.7662 11.7356 10.4058 11.7356C9.96594 11.7356 9.60824 11.3772 9.60824 10.938C9.60824 10.7088 9.70598 10.4971 9.88518 10.3413C9.98291 10.2544 10.04 10.1313 10.04 10.0001C10.04 9.86894 9.98291 9.74564 9.88518 9.6589C9.70692 9.50311 9.60824 9.2914 9.60824 9.06225C9.60824 8.62331 9.96595 8.26466 10.4058 8.26466C10.7662 8.26466 11.0821 8.51005 11.1736 8.86298C11.2252 9.06297 11.4054 9.20252 11.6118 9.20252H16.3881C16.5946 9.20252 16.7747 9.06322 16.8263 8.86298C16.9179 8.50982 17.2337 8.26466 17.5941 8.26466C18.034 8.26466 18.3917 8.62308 18.3917 9.06225C18.3917 9.29212 18.294 9.50311 18.1155 9.6589C18.0177 9.74588 17.9606 9.86894 17.9606 10.0001C17.9606 10.1313 18.0175 10.2544 18.1155 10.3413Z" />
    </symbol>
    <symbol id="vegetable" viewBox="0 0 27 27" xmlns="http://www.w3.org/2000/svg" fill="none">
        <path
            d="M21.1682 8.60176L18.1869 7.36733C16.548 6.6876 14.879 7.547 14.479 9.27556L11.1436 23.6796C10.9433 24.5444 11.4501 25.528 12.2703 25.868C13.09 26.2075 14.145 25.8695 14.6141 25.1174L22.4412 12.5734C23.3799 11.0678 22.8077 9.28053 21.1683 8.60145L21.1682 8.60176Z"
            stroke-miterlimit="10" stroke-linecap="round" stroke-linejoin="round" />
        <path d="M19.6782 1C20.6423 3.32892 20.5709 5.82728 19.6777 7.98482C20.5706 5.82706 20.6423 3.32848 19.6782 1Z"
            stroke-miterlimit="10" stroke-linecap="round" stroke-linejoin="round" />
        <path
            d="M26.0005 5.36505C23.5304 4.34146 20.7008 5.51481 19.6776 7.98444C20.3592 6.33756 19.5781 4.45 17.9313 3.76811C17.1085 3.4276 16.2254 3.45182 15.4624 3.76811C16.2251 3.45182 17.1087 3.4276 17.9313 3.76811C19.5781 4.4499 20.3592 6.3375 19.6776 7.98444C20.7009 5.5148 23.5308 4.34156 26.0005 5.36505V5.36505Z"
            stroke-miterlimit="10" stroke-linecap="round" stroke-linejoin="round" />
        <path d="M14.0999 10.9117L17.8259 12.455L14.0999 10.9117Z" stroke-miterlimit="10" stroke-linecap="round"
            stroke-linejoin="round" />
        <path d="M19.8207 16.7738L16.5916 15.4365L19.8207 16.7738Z" stroke-miterlimit="10" stroke-linecap="round"
            stroke-linejoin="round" />
        <path d="M12.6248 17.2847L15.3571 18.4165L12.6248 17.2847Z" stroke-miterlimit="10" stroke-linecap="round"
            stroke-linejoin="round" />
        <path d="M16.3571 22.3223L14.1228 21.3966L16.3571 22.3223Z" stroke-miterlimit="10" stroke-linecap="round"
            stroke-linejoin="round" />
        <path
            d="M9.86085 5.60633L7.53762 7.45064L5.16076 4.90625L5.27882 8.38694L2.33154 8.72514C3.24353 9.10327 3.96679 9.74175 4.45783 10.5171C5.50513 10.2019 6.5929 10.2784 7.54945 10.6736L7.5492 10.6723C7.94539 9.71467 8.66147 8.8919 9.62549 8.37558C9.41231 7.42931 9.50614 6.46398 9.86082 5.6064L9.86085 5.60633Z"
            stroke-miterlimit="10" stroke-linecap="round" stroke-linejoin="round" />
        <path
            d="M14.479 9.27546C14.5285 9.0592 14.5991 8.85633 14.686 8.66867C13.367 7.76262 11.6322 7.5193 10.0434 8.1771C8.86746 8.66401 8.0006 9.58116 7.54925 10.6723L7.5495 10.6736C6.45917 10.223 5.19662 10.1854 4.02069 10.673C1.52501 11.7059 0.339992 14.5662 1.37345 17.0613C3.0412 21.087 7.56107 23.0552 11.6211 21.6145L14.479 9.27546Z"
            stroke-miterlimit="10" stroke-linecap="round" stroke-linejoin="round" />
    </symbol>
</svg>