<svg width="16" height="12" viewBox="0 0 16 12" fill="none" xmlns="http://www.w3.org/2000/svg">
    <path d="M1.28707 4.74163H1.73771L3.07644 9.95257C3.15564 10.2612 3.33508 10.5344 3.58659 10.7296C3.8381 10.9248 4.14732 11.0308 4.46561 11.0308H11.3033C11.6215 11.0308 11.9307 10.9248 12.1822 10.7296C12.4337 10.5344 12.6133 10.2611 12.6925 9.95257L14.0312 4.74163H14.4819C14.6402 4.74163 14.7687 4.6131 14.7687 4.45457C14.7687 4.29603 14.6402 4.1675 14.4819 4.1675H11.6211L9.54468 1.1459C9.45488 1.01525 9.2762 0.982206 9.14567 1.07209C9.01514 1.16197 8.98213 1.34081 9.07193 1.47146L10.9249 4.16749H4.90709L6.75962 1.47267C6.84971 1.34202 6.81701 1.16287 6.68648 1.07267C6.55595 0.98249 6.37697 1.01523 6.28685 1.14588L4.21066 4.16628H1.2868C1.12841 4.16628 1 4.29481 1 4.45334C1 4.61203 1.12841 4.74056 1.2868 4.74056L1.28707 4.74163ZM3.81584 4.74163L3.4768 5.23514V5.23529C3.43274 5.29804 3.41563 5.37564 3.42925 5.45112C3.44273 5.5266 3.48588 5.59344 3.54903 5.63694C3.61217 5.68029 3.69 5.69666 3.76526 5.68226C3.84037 5.66801 3.90684 5.62421 3.94954 5.56055L4.51268 4.74166H11.3194L11.8822 5.56055C11.9719 5.69135 12.1506 5.72439 12.2812 5.63467C12.4118 5.54479 12.4449 5.36594 12.3551 5.23529L12.015 4.74163H13.4378L12.1366 9.80978C12.0891 9.99484 11.9814 10.1588 11.8306 10.276C11.6796 10.393 11.4943 10.4567 11.3033 10.4567H4.46563C4.27468 10.4567 4.08919 10.393 3.93835 10.276C3.78754 10.1589 3.67987 9.99486 3.63233 9.80978L2.33038 4.74163H3.81584Z" fill="#9AA0AB" stroke="#9AA0AB" stroke-width="0.5" stroke-linejoin="bevel" />
    <path d="M7.88445 9.14387C7.96061 9.14387 8.0336 9.11356 8.08736 9.05975C8.14111 9.00595 8.1714 8.9329 8.1714 8.85681V6.34248C8.1714 6.18395 8.04299 6.05542 7.88445 6.05542C7.72606 6.05542 7.59766 6.18395 7.59766 6.34248V8.85817C7.59841 9.01625 7.72667 9.14387 7.88445 9.14387L7.88445 9.14387Z" fill="#9AA0AB" stroke="#9AA0AB" stroke-width="0.5" stroke-linejoin="bevel" />
    <path d="M10.3979 9.14387C10.474 9.14387 10.547 9.11356 10.6008 9.05975C10.6545 9.00595 10.6848 8.9329 10.6848 8.85681V6.34248C10.6848 6.18395 10.5564 6.05542 10.3979 6.05542C10.2395 6.05542 10.1111 6.18395 10.1111 6.34248V8.85817C10.1118 9.01625 10.2401 9.14387 10.3979 9.14387L10.3979 9.14387Z" fill="#9AA0AB" stroke="#9AA0AB" stroke-width="0.5" stroke-linejoin="bevel" />
    <path d="M5.37078 9.14387C5.44694 9.14387 5.51993 9.11356 5.57369 9.05975C5.62744 9.00595 5.65773 8.9329 5.65773 8.85681V6.34248C5.65773 6.18395 5.52932 6.05542 5.37078 6.05542C5.21239 6.05542 5.08398 6.18395 5.08398 6.34248V8.85817C5.08474 9.01625 5.213 9.14387 5.37078 9.14387L5.37078 9.14387Z" fill="#9AA0AB" stroke="#9AA0AB" stroke-width="0.5" stroke-linejoin="bevel" />
</svg>