<svg width="16" height="15" viewBox="0 0 16 15" fill="none" xmlns="http://www.w3.org/2000/svg">
<path d="M5.40131 9.79301C7.84505 5.39977 11.3047 2.18721 16 0.375C11.2498 4.30146 7.87251 9.18894 5.56606 14.9001C5.48368 14.7629 5.40131 14.6256 5.31894 14.4883C4.1108 12.4564 2.73791 10.5069 1.00807 8.85944C0.815867 8.6947 0.623663 8.52995 0.431459 8.33775C-0.0353227 7.92588 -0.117696 7.54147 0.156882 6.99232C0.458917 6.38825 0.925698 6.00384 1.55723 5.78418C1.94163 5.64689 2.27113 5.83909 2.54571 6.11367C3.56164 7.07469 4.44029 8.173 5.15419 9.35368C5.23656 9.49097 5.31894 9.62826 5.40131 9.79301Z" fill="#FF4B4B"/>
</svg>
