<svg xmlns="http://www.w3.org/2000/svg">
	<!-- Offer Icon -->
	<symbol id="offer" viewBox="0 0 41 44">
		<path
			d="M39.6339 8.34944H28.3433L29.3312 7.44428C29.4037 7.37784 29.4687 7.30346 29.5251 7.22247C30.9688 5.15123 30.4965 2.26435 28.472 0.787099C27.5067 0.0827228 26.2907 -0.164661 25.1358 0.109181C23.9807 0.382729 22.9945 1.15134 22.4299 2.21775L20.5001 5.86296L18.5703 2.21775C18.0056 1.15119 17.0193 0.382436 15.8644 0.109034C14.7091 -0.164661 13.4931 0.0825759 12.5281 0.786952C10.5039 2.2642 10.0315 5.15109 11.475 7.22232C11.5316 7.30346 11.5967 7.37784 11.6689 7.44413L12.6568 8.3493H1.36655C0.63825 8.3493 0.0478516 8.95343 0.0478516 9.69866V18.2541C0.0478516 18.9993 0.63825 19.6034 1.36655 19.6034H1.71591V42.6506C1.71591 43.3958 2.30631 44 3.03461 44H37.9658C38.6941 44 39.2845 43.3958 39.2845 42.6506V19.6034H39.6339C40.3622 19.6034 40.9526 18.9993 40.9526 18.2541V9.69881C40.9526 8.95357 40.362 8.34944 39.6339 8.34944ZM24.7489 3.50318C24.9566 3.11057 25.3053 2.83893 25.7305 2.73825C25.8457 2.7109 25.961 2.69753 26.0754 2.69753C26.3831 2.69753 26.6817 2.79513 26.9407 2.98416C27.3478 3.28123 27.6173 3.72249 27.6999 4.22725C27.7753 4.6888 27.6861 5.15226 27.4484 5.54678L24.3894 8.34944H22.1834L24.7489 3.50318ZM13.3002 4.2274C13.3827 3.72293 13.6523 3.28137 14.0596 2.98431C14.4148 2.72502 14.8443 2.63756 15.2698 2.73839C15.6949 2.83893 16.0435 3.11072 16.2514 3.50333L18.8169 8.34944H16.6109L13.5518 5.54678C13.314 5.15241 13.2248 4.68866 13.3002 4.2274ZM15.5927 41.3014H4.35317V19.6036H15.5927V41.3014ZM22.77 41.3014H18.2301V19.6036H22.77V41.3014ZM36.6471 41.3014H25.4076V19.6036H36.6471V41.3014ZM38.3152 16.9049H2.68511V11.0482H38.315V16.9049H38.3152Z" />
	</symbol>
	<!-- Pay Icon -->
	<symbol id="pay" viewBox="0 0 44 44">
		<path
			d="M39.6 13.2002H4.4C1.96977 13.2002 0 15.1699 0 17.6002V37.4002C0 39.8304 1.96977 41.8002 4.4 41.8002H39.6C42.0302 41.8002 44 39.8304 44 37.4002V17.6002C44 15.1699 42.0302 13.2002 39.6 13.2002ZM41.8 37.4002C41.8 38.6131 40.8129 39.6002 39.6 39.6002H4.4C3.18708 39.6002 2.2 38.6131 2.2 37.4002V17.6002C2.2 16.3873 3.18708 15.4002 4.4 15.4002H39.6C40.8129 15.4002 41.8 16.3873 41.8 17.6002V37.4002Z" />
		<path
			d="M33.6909 4.74192C32.6635 2.539 30.0462 1.58638 27.8433 2.61377L9.8584 11.0002H15.0636L28.7733 4.60777C29.8726 4.09516 31.1846 4.57254 31.6971 5.67185L34.1823 11.0002H36.6096L33.6909 4.74192Z" />
		<path
			d="M13.1994 17.6001H6.59941C5.38426 17.6001 4.39941 18.5849 4.39941 19.8001V24.2001C4.39941 25.4152 5.38426 26.4001 6.59941 26.4001H13.1994C14.4146 26.4001 15.3994 25.4152 15.3994 24.2001V19.8001C15.3994 18.5849 14.4146 17.6001 13.1994 17.6001ZM13.1994 24.2001H6.59941V19.8001H13.1994V24.2001Z" />
		<path d="M26.3994 33H4.39941V35.2H26.3994V33Z" />
		<path
			d="M36.3006 30.7998C35.4514 30.7998 34.685 31.1298 34.1006 31.6563C33.5161 31.1298 32.7498 30.7998 31.9006 30.7998C30.0783 30.7998 28.6006 32.2775 28.6006 34.0998C28.6006 35.9221 30.0783 37.3998 31.9006 37.3998C32.7498 37.3998 33.5161 37.0698 34.1006 36.5433C34.685 37.0698 35.4514 37.3998 36.3006 37.3998C38.1229 37.3998 39.6006 35.9221 39.6006 34.0998C39.6006 32.2775 38.1229 30.7998 36.3006 30.7998ZM31.9006 35.1998C31.2941 35.1998 30.8006 34.7063 30.8006 34.0998C30.8006 33.4933 31.2941 32.9998 31.9006 32.9998C32.507 32.9998 33.0006 33.4933 33.0006 34.0998C33.0006 34.7063 32.507 35.1998 31.9006 35.1998ZM36.3006 35.1998C35.6941 35.1998 35.2006 34.7063 35.2006 34.0998C35.2006 33.4933 35.6941 32.9998 36.3006 32.9998C36.907 32.9998 37.4006 33.4933 37.4006 34.0998C37.4006 34.7063 36.907 35.1998 36.3006 35.1998Z" />
	</symbol>
	<!-- Service Icon -->
	<symbol id="service" viewBox="0 0 43 44">
		<path
			d="M14.3691 25.3596L13.2365 26.4345C13.0765 26.5865 12.9863 26.795 12.9863 27.013V27.4717C12.9863 27.9169 13.3556 28.2779 13.8111 28.2779H20.5744C21.0304 28.2779 21.3994 27.9169 21.3994 27.4717V26.8779C21.3994 26.4327 21.0304 26.0715 20.5744 26.0715H16.8374L16.9405 25.9789C19.3828 23.6781 21.1115 21.8672 21.1115 19.5092C21.1115 17.624 19.8584 15.7217 17.0579 15.7217C15.8353 15.7217 14.6381 16.1053 13.6863 16.8015C13.3773 17.0282 13.27 17.4345 13.4291 17.7791L13.6371 18.2289C13.7381 18.4477 13.9331 18.611 14.1701 18.6747C14.4056 18.7383 14.6599 18.6953 14.8609 18.558C15.4729 18.1402 16.1029 17.9281 16.734 17.9281C17.9622 17.9281 18.5848 18.5252 18.5848 19.6947C18.5684 21.2794 17.224 22.7021 14.3691 25.3596Z" />
		<path
			d="M26.6967 15.9183C26.6747 15.9164 26.6524 15.9155 26.6305 15.9155H26.3786C26.1089 15.9155 25.8567 16.0443 25.7026 16.26L20.6515 23.3279C20.5547 23.4633 20.5029 23.6246 20.5029 23.7898V24.3564C20.5029 24.8017 20.8719 25.1628 21.3274 25.1628H25.9393V27.4719C25.9393 27.9171 26.3083 28.2781 26.7637 28.2781H27.5512C28.0064 28.2781 28.3761 27.9171 28.3761 27.4719V25.1628H29.1891C29.6446 25.1628 30.014 24.8017 30.014 24.3564V23.8328C30.014 23.3877 29.6446 23.0265 29.1891 23.0265H28.3761V16.7219C28.3761 16.2769 28.0064 15.9157 27.5512 15.9157H26.7637C26.7412 15.9157 26.7186 15.9165 26.6967 15.9183ZM25.9393 23.0265H23.449C24.0816 22.1283 25.1634 20.5868 25.9393 19.4475V23.0265Z" />
		<path
			d="M21.5311 40.5123C11.8252 40.5123 3.92863 32.7912 3.92863 23.3009C3.92863 14.3145 11.0094 6.91582 20.0018 6.15518V8.89875C20.0018 9.09365 20.1118 9.27279 20.2876 9.36431C20.3672 9.40589 20.4544 9.42626 20.5413 9.42626C20.6465 9.42626 20.7516 9.39612 20.8421 9.33655L27.2133 5.15108C27.3626 5.05314 27.452 4.88893 27.452 4.71314C27.452 4.53749 27.3626 4.37314 27.2133 4.2752L20.8421 0.0897381C20.6767 -0.0189445 20.4634 -0.0298267 20.2875 0.062114C20.1117 0.153776 20.0017 0.332914 20.0017 0.527677V2.65585C9.04008 3.42486 0.361328 12.39 0.361328 23.3008C0.361328 34.7144 9.85824 44 21.531 44C26.9354 44 32.0804 42.009 36.0182 38.3939L33.5767 35.8511C30.3026 38.8569 26.0249 40.5123 21.5311 40.5123Z" />
		<path
			d="M39.6016 12.5132C38.8723 11.347 38.0195 10.2458 37.0676 9.24072L34.4502 11.6104C35.2424 12.4468 35.9515 13.363 36.5585 14.333L39.6016 12.5132Z" />
		<path
			d="M38.9733 20.9633L42.508 20.4941C42.3194 19.1352 41.9908 17.7913 41.5312 16.4995L38.1621 17.6451C38.5437 18.7178 38.8165 19.8342 38.9733 20.9633Z" />
		<path
			d="M33.6724 6.34238C32.5245 5.55509 31.2927 4.87803 30.0111 4.32959L28.5811 7.52492C29.6461 7.98071 30.67 8.54352 31.6241 9.19785L33.6724 6.34238Z" />
		<path
			d="M35.1299 34.2307L37.8842 36.4472C38.7751 35.3887 39.5607 34.2404 40.2189 33.0343L37.072 31.3921C36.5246 32.3949 35.8713 33.3501 35.1299 34.2307Z" />
		<path
			d="M39.0814 24.6318C38.9926 25.7699 38.7873 26.9009 38.4717 27.9932L41.9043 28.9422C42.2847 27.6271 42.5315 26.2663 42.6385 24.8976L39.0814 24.6318Z" />
	</symbol>
	<!-- Shipping Icon -->
	<symbol id="shipping" viewBox="0 0 44 44">
		<path
			d="M40.9198 24.6589L39.7804 20.1012C40.0919 20.0351 40.3257 19.7587 40.3257 19.4276V18.6927C40.3257 17.0972 39.0276 15.7992 37.4321 15.7992H32.2422V14.2835C32.2422 13.4984 31.6035 12.8597 30.8184 12.8597H21.1681L27.0325 10.514C27.3858 10.3727 27.5576 9.97169 27.4163 9.6184C27.275 9.2652 26.8743 9.09324 26.5207 9.23461L21.7191 11.1552C23.1822 10.2164 24.6299 9.18321 25.181 8.46065C26.2539 7.05394 25.9822 5.03664 24.5755 3.96371C23.1687 2.8907 21.1515 3.16252 20.0785 4.56923C19.2946 5.59721 18.2603 8.48566 17.5908 10.5211C16.9214 8.48583 15.887 5.59721 15.1031 4.56923C14.0302 3.16252 12.0129 2.89087 10.6061 3.96371C9.19944 5.03656 8.92779 7.05385 10.0006 8.46065C10.5518 9.1833 11.9993 10.2164 13.4625 11.1552L8.66087 9.23461C8.30741 9.09307 7.90659 9.26511 7.76531 9.6184C7.62395 9.97169 7.79582 10.3727 8.14911 10.514L14.0135 12.8597H4.36322C3.57809 12.8597 2.93941 13.4984 2.93941 14.2835V26.7763C2.93941 27.1567 3.24784 27.4652 3.62837 27.4652C4.00881 27.4652 4.31733 27.1568 4.31733 26.7763V14.2835C4.31733 14.2582 4.33787 14.2376 4.36322 14.2376H30.8183C30.8437 14.2376 30.8642 14.2582 30.8642 14.2835V26.7764C30.8642 27.1569 31.1726 27.4654 31.5532 27.4654C31.9336 27.4654 32.2421 27.157 32.2421 26.7764V25.9954H40.3689C40.3697 25.9954 40.3703 25.9956 40.371 25.9956C40.3718 25.9956 40.3725 25.9955 40.3733 25.9955C41.3732 25.9963 42.2223 26.6527 42.5138 27.5571H40.3715C39.9911 27.5571 39.6826 27.8655 39.6826 28.246V29.7157C39.6826 30.9061 40.6509 31.8744 41.8413 31.8744H42.6221V34.9057H40.8207C40.2289 33.1971 38.6046 31.9662 36.6972 31.9662C34.7898 31.9662 33.1654 33.197 32.5737 34.9057H32.242V29.7157C32.242 29.3352 31.9336 29.0267 31.5531 29.0267C31.1726 29.0267 30.8641 29.3351 30.8641 29.7157V34.9056H16.5702C15.9784 33.197 14.3541 31.9661 12.4468 31.9661C10.5394 31.9661 8.91498 33.1969 8.3233 34.9056H4.36322C4.33787 34.9056 4.31733 34.8851 4.31733 34.8597V33.344H7.30271C7.68316 33.344 7.99167 33.0356 7.99167 32.6551C7.99167 32.2745 7.68324 31.9661 7.30271 31.9661H0.688961C0.308516 31.9661 0 32.2745 0 32.6551C0 33.0356 0.30843 33.344 0.688961 33.344H2.93949V34.8597C2.93949 35.6448 3.57818 36.2835 4.3633 36.2835H8.08474C8.08457 36.2988 8.08354 36.314 8.08354 36.3294C8.08354 38.7352 10.0409 40.6926 12.4468 40.6926C14.8526 40.6926 16.81 38.7352 16.81 36.3294C16.81 36.3139 16.8089 36.2988 16.8088 36.2835H32.3351C32.3349 36.2988 32.3339 36.314 32.3339 36.3294C32.3339 38.7352 34.2913 40.6926 36.6971 40.6926C39.1029 40.6926 41.0603 38.7352 41.0603 36.3294C41.0603 36.3139 41.0593 36.2988 41.0591 36.2835H43.311C43.6914 36.2835 43.9999 35.9751 43.9999 35.5946V28.246C44 26.4315 42.6614 24.924 40.9198 24.6589ZM14.8586 10.4037C12.141 8.71494 11.3349 7.93798 11.0962 7.625C10.4841 6.82242 10.6391 5.67146 11.4418 5.05933C11.7727 4.80702 12.1626 4.68507 12.5498 4.68507C13.1017 4.68507 13.6477 4.93309 14.0076 5.40489C14.674 6.2787 15.7177 9.21974 16.4068 11.339C15.9417 11.0652 15.4072 10.7448 14.8586 10.4037ZM18.775 11.339C19.4641 9.21974 20.5078 6.27878 21.1741 5.4048C21.7863 4.60223 22.9372 4.44728 23.7398 5.05933C24.5425 5.67146 24.6974 6.82242 24.0854 7.625C23.8467 7.93789 23.0406 8.71494 20.3232 10.4036C19.7746 10.7446 19.2401 11.0652 18.775 11.339ZM32.2422 17.1769H37.4321C38.2679 17.1769 38.9478 17.8569 38.9478 18.6926V18.7385H32.2422V17.1769ZM32.2422 24.6175V20.1164H38.364L39.4892 24.6175H32.2422ZM12.4468 39.3148C10.8006 39.3148 9.46138 37.9755 9.46138 36.3294C9.46138 34.6833 10.8006 33.344 12.4468 33.344C14.0929 33.344 15.4321 34.6833 15.4321 36.3294C15.4321 37.9755 14.0929 39.3148 12.4468 39.3148ZM36.6973 39.3148C35.0512 39.3148 33.7119 37.9755 33.7119 36.3294C33.7119 34.6833 35.0512 33.344 36.6973 33.344C38.3434 33.344 39.6827 34.6833 39.6827 36.3294C39.6827 37.9755 38.3434 39.3148 36.6973 39.3148ZM42.6222 30.4964H41.8413C41.4108 30.4964 41.0605 30.1461 41.0605 29.7156V28.9347H42.6221V30.4964H42.6222Z" />
		<path
			d="M12.4473 34.9053C11.6621 34.9053 11.0234 35.544 11.0234 36.3291C11.0234 37.1142 11.6621 37.7529 12.4473 37.7529C13.2324 37.7529 13.8711 37.1142 13.8711 36.3291C13.8711 35.544 13.2324 34.9053 12.4473 34.9053Z" />
		<path
			d="M36.6973 34.9053C35.9121 34.9053 35.2734 35.544 35.2734 36.3291C35.2734 37.1142 35.9121 37.7529 36.6973 37.7529C37.4824 37.7529 38.1211 37.1142 38.1211 36.3291C38.1211 35.544 37.4824 34.9053 36.6973 34.9053Z" />
		<path
			d="M28.6138 31.9658H18.3257C17.9452 31.9658 17.6367 32.2742 17.6367 32.6548C17.6367 33.0353 17.9451 33.3437 18.3257 33.3437H28.6138C28.9942 33.3437 29.3027 33.0353 29.3027 32.6548C29.3027 32.2742 28.9943 31.9658 28.6138 31.9658Z" />
		<path
			d="M10.9771 29.0264H2.15869C1.77824 29.0264 1.46973 29.3348 1.46973 29.7153C1.46973 30.0959 1.77816 30.4043 2.15869 30.4043H10.9771C11.3575 30.4043 11.666 30.0959 11.666 29.7153C11.666 29.3348 11.3575 29.0264 10.9771 29.0264Z" />
		<path
			d="M10.9771 18.7383H8.03759C7.65715 18.7383 7.34863 19.0467 7.34863 19.4272V25.3061C7.34863 25.6866 7.65706 25.9951 8.03759 25.9951C8.41813 25.9951 8.72655 25.6867 8.72655 25.3061V23.0556H10.2422C10.6227 23.0556 10.9312 22.7472 10.9312 22.3667C10.9312 21.9861 10.6228 21.6777 10.2422 21.6777H8.72655V20.1162H10.9771C11.3575 20.1162 11.666 19.8078 11.666 19.4272C11.666 19.0468 11.3575 18.7383 10.9771 18.7383Z" />
		<path
			d="M16.3983 23.3787C17.0878 22.9271 17.5445 22.1483 17.5445 21.2644C17.5445 19.8715 16.4113 18.7383 15.0183 18.7383H13.1811C12.8007 18.7383 12.4922 19.0467 12.4922 19.4272V25.3061C12.4922 25.6866 12.8006 25.9951 13.1811 25.9951C13.5617 25.9951 13.8701 25.6867 13.8701 25.3061V23.7905H15.017L16.2822 25.6882C16.415 25.8873 16.6333 25.9951 16.856 25.9951C16.9874 25.9951 17.1201 25.9576 17.2375 25.8793C17.5542 25.6683 17.6397 25.2405 17.4285 24.924L16.3983 23.3787ZM15.0183 22.4126H13.8701V20.1162H15.0183C15.6515 20.1162 16.1665 20.6312 16.1665 21.2644C16.1665 21.8976 15.6515 22.4126 15.0183 22.4126Z" />
		<path
			d="M22.0005 24.6173H19.75V23.0534C19.7652 23.0544 19.7804 23.0557 19.7959 23.0557H21.2656C21.646 23.0557 21.9545 22.7473 21.9545 22.3667C21.9545 21.9862 21.6461 21.6778 21.2656 21.6778H19.7959C19.7803 21.6778 19.7652 21.6791 19.75 21.6801V20.1162H22.0005C22.381 20.1162 22.6895 19.8078 22.6895 19.4272C22.6895 19.0468 22.381 18.7383 22.0005 18.7383H19.061C18.6806 18.7383 18.3721 19.0467 18.3721 19.4272V25.3061C18.3721 25.6866 18.6805 25.9951 19.061 25.9951H22.0005C22.381 25.9951 22.6895 25.6867 22.6895 25.3061C22.6895 24.9256 22.381 24.6173 22.0005 24.6173Z" />
		<path
			d="M27.1441 24.6173H24.8936V23.0557H25.6744C26.0548 23.0557 26.3633 22.7473 26.3633 22.3667C26.3633 21.9862 26.0549 21.6778 25.6744 21.6778H24.8936V20.1162H27.1441C27.5245 20.1162 27.833 19.8078 27.833 19.4272C27.833 19.0468 27.5246 18.7383 27.1441 18.7383H24.2046C23.8241 18.7383 23.5156 19.0467 23.5156 19.4272V25.3061C23.5156 25.6866 23.8241 25.9951 24.2046 25.9951H27.1441C27.5245 25.9951 27.833 25.6867 27.833 25.3061C27.833 24.9256 27.5245 24.6173 27.1441 24.6173Z" />
	</symbol>
	<!-- Free Return -->
	<symbol id="return" viewBox="0 0 24 24" xmlns="http://www.w3.org/2000/svg">
		<path
			d="M12,4a8,8,0,0,1,4.985,1.758H15.242a1,1,0,0,0,0,2h4a1,1,0,0,0,1-1v-4a1,1,0,1,0-2,0V4.206A9.983,9.983,0,0,0,2,12a1,1,0,0,0,2,0A8.009,8.009,0,0,1,12,4Z" />
		<path
			d="M21,11a1,1,0,0,0-1,1A7.986,7.986,0,0,1,7.015,18.242H8.757a1,1,0,1,0,0-2h-4a1,1,0,0,0-1,1v4a1,1,0,0,0,2,0V19.794A9.984,9.984,0,0,0,22,12,1,1,0,0,0,21,11Z" />
	</symbol>
</svg>