<svg xmlns="http://www.w3.org/2000/svg">
	<!-- Shopping Icon -->
	<symbol id="shopping_icon" viewBox="0 0 44 44">
		<path
			d="M40.9198 24.6587L39.7804 20.101C40.0919 20.0349 40.3257 19.7585 40.3257 19.4274V18.6925C40.3257 17.097 39.0276 15.799 37.4321 15.799H32.2422V14.2833C32.2422 13.4982 31.6035 12.8595 30.8184 12.8595H21.1681L27.0325 10.5138C27.3858 10.3725 27.5576 9.97151 27.4163 9.61822C27.275 9.26502 26.8743 9.09305 26.5207 9.23442L21.7191 11.155C23.1822 10.2163 24.6299 9.18303 25.181 8.46047C26.2539 7.05376 25.9822 5.03646 24.5755 3.96353C23.1687 2.89051 21.1515 3.16234 20.0785 4.56905C19.2946 5.59703 18.2603 8.48548 17.5908 10.5209C16.9214 8.48565 15.887 5.59703 15.1031 4.56905C14.0302 3.16234 12.0129 2.89069 10.6061 3.96353C9.19944 5.03637 8.92779 7.05367 10.0006 8.46047C10.5518 9.18312 11.9993 10.2163 13.4625 11.155L8.66087 9.23442C8.30741 9.09288 7.90659 9.26493 7.76531 9.61822C7.62395 9.97151 7.79582 10.3725 8.14911 10.5138L14.0135 12.8595H4.36322C3.57809 12.8595 2.93941 13.4982 2.93941 14.2833V26.7761C2.93941 27.1565 3.24784 27.465 3.62837 27.465C4.00881 27.465 4.31733 27.1566 4.31733 26.7761V14.2833C4.31733 14.258 4.33787 14.2374 4.36322 14.2374H30.8183C30.8437 14.2374 30.8642 14.258 30.8642 14.2833V26.7762C30.8642 27.1567 31.1726 27.4652 31.5532 27.4652C31.9336 27.4652 32.2421 27.1568 32.2421 26.7762V25.9952H40.3689C40.3697 25.9952 40.3703 25.9954 40.371 25.9954C40.3718 25.9954 40.3725 25.9953 40.3733 25.9953C41.3732 25.9961 42.2223 26.6525 42.5138 27.5569H40.3715C39.9911 27.5569 39.6826 27.8653 39.6826 28.2459V29.7156C39.6826 30.9059 40.6509 31.8742 41.8413 31.8742H42.6221V34.9055H40.8207C40.2289 33.1969 38.6046 31.966 36.6972 31.966C34.7898 31.966 33.1654 33.1968 32.5737 34.9055H32.242V29.7155C32.242 29.335 31.9336 29.0265 31.5531 29.0265C31.1726 29.0265 30.8641 29.3349 30.8641 29.7155V34.9054H16.5702C15.9784 33.1968 14.3541 31.9659 12.4468 31.9659C10.5394 31.9659 8.91498 33.1967 8.3233 34.9054H4.36322C4.33787 34.9054 4.31733 34.8849 4.31733 34.8595V33.3438H7.30271C7.68316 33.3438 7.99167 33.0354 7.99167 32.6549C7.99167 32.2744 7.68324 31.9659 7.30271 31.9659H0.688961C0.308516 31.9659 0 32.2744 0 32.6549C0 33.0354 0.30843 33.3438 0.688961 33.3438H2.93949V34.8595C2.93949 35.6446 3.57818 36.2833 4.3633 36.2833H8.08474C8.08457 36.2986 8.08354 36.3138 8.08354 36.3292C8.08354 38.7351 10.0409 40.6924 12.4468 40.6924C14.8526 40.6924 16.81 38.7351 16.81 36.3292C16.81 36.3138 16.8089 36.2986 16.8088 36.2833H32.3351C32.3349 36.2986 32.3339 36.3138 32.3339 36.3292C32.3339 38.7351 34.2913 40.6924 36.6971 40.6924C39.1029 40.6924 41.0603 38.7351 41.0603 36.3292C41.0603 36.3138 41.0593 36.2986 41.0591 36.2833H43.311C43.6914 36.2833 43.9999 35.9749 43.9999 35.5944V28.2458C44 26.4313 42.6614 24.9238 40.9198 24.6587ZM14.8586 10.4035C12.141 8.71476 11.3349 7.9378 11.0962 7.62481C10.4841 6.82224 10.6391 5.67128 11.4418 5.05915C11.7727 4.80684 12.1626 4.68489 12.5498 4.68489C13.1017 4.68489 13.6477 4.93291 14.0076 5.4047C14.674 6.27852 15.7177 9.21955 16.4068 11.3389C15.9417 11.0651 15.4072 10.7446 14.8586 10.4035ZM18.775 11.3388C19.4641 9.21955 20.5078 6.2786 21.1741 5.40462C21.7863 4.60205 22.9372 4.4471 23.7398 5.05915C24.5425 5.67128 24.6974 6.82224 24.0854 7.62481C23.8467 7.93771 23.0406 8.71476 20.3232 10.4034C19.7746 10.7444 19.2401 11.065 18.775 11.3388ZM32.2422 17.1768H37.4321C38.2679 17.1768 38.9478 17.8567 38.9478 18.6924V18.7383H32.2422V17.1768ZM32.2422 24.6173V20.1163H38.364L39.4892 24.6173H32.2422ZM12.4468 39.3146C10.8006 39.3146 9.46138 37.9754 9.46138 36.3292C9.46138 34.6831 10.8006 33.3438 12.4468 33.3438C14.0929 33.3438 15.4321 34.6831 15.4321 36.3292C15.4321 37.9754 14.0929 39.3146 12.4468 39.3146ZM36.6973 39.3146C35.0512 39.3146 33.7119 37.9754 33.7119 36.3292C33.7119 34.6831 35.0512 33.3438 36.6973 33.3438C38.3434 33.3438 39.6827 34.6831 39.6827 36.3292C39.6827 37.9754 38.3434 39.3146 36.6973 39.3146ZM42.6222 30.4962H41.8413C41.4108 30.4962 41.0605 30.1459 41.0605 29.7154V28.9346H42.6221V30.4962H42.6222Z" />
		<path
			d="M12.4468 34.9054C11.6616 34.9054 11.0229 35.5441 11.0229 36.3292C11.0229 37.1143 11.6616 37.753 12.4468 37.753C13.2319 37.753 13.8706 37.1143 13.8706 36.3292C13.8706 35.5441 13.2319 34.9054 12.4468 34.9054Z" />
		<path
			d="M36.6973 34.9054C35.9121 34.9054 35.2734 35.5441 35.2734 36.3292C35.2734 37.1143 35.9121 37.753 36.6973 37.753C37.4824 37.753 38.1211 37.1143 38.1211 36.3292C38.1211 35.5441 37.4824 34.9054 36.6973 34.9054Z" />
		<path
			d="M28.6138 31.9659H18.3257C17.9452 31.9659 17.6367 32.2743 17.6367 32.6548C17.6367 33.0354 17.9451 33.3438 18.3257 33.3438H28.6138C28.9942 33.3438 29.3027 33.0354 29.3027 32.6548C29.3027 32.2743 28.9943 31.9659 28.6138 31.9659Z" />
		<path
			d="M10.9771 29.0265H2.15869C1.77824 29.0265 1.46973 29.3349 1.46973 29.7154C1.46973 30.096 1.77816 30.4044 2.15869 30.4044H10.9771C11.3575 30.4044 11.666 30.096 11.666 29.7154C11.666 29.3349 11.3575 29.0265 10.9771 29.0265Z" />
		<path
			d="M10.9771 18.7383H8.03759C7.65715 18.7383 7.34863 19.0468 7.34863 19.4273V25.3062C7.34863 25.6867 7.65706 25.9952 8.03759 25.9952C8.41813 25.9952 8.72655 25.6867 8.72655 25.3062V23.0557H10.2422C10.6227 23.0557 10.9312 22.7472 10.9312 22.3667C10.9312 21.9862 10.6228 21.6778 10.2422 21.6778H8.72655V20.1163H10.9771C11.3575 20.1163 11.666 19.8078 11.666 19.4273C11.666 19.0469 11.3575 18.7383 10.9771 18.7383Z" />
		<path
			d="M16.3988 23.3787C17.0883 22.9271 17.5449 22.1483 17.5449 21.2645C17.5449 19.8715 16.4118 18.7383 15.0188 18.7383H13.1816C12.8012 18.7383 12.4927 19.0468 12.4927 19.4273V25.3062C12.4927 25.6867 12.8011 25.9952 13.1816 25.9952C13.5622 25.9952 13.8706 25.6867 13.8706 25.3062V23.7905H15.0175L16.2827 25.6883C16.4155 25.8874 16.6338 25.9952 16.8565 25.9952C16.9879 25.9952 17.1206 25.9577 17.238 25.8793C17.5547 25.6683 17.6402 25.2406 17.429 24.924L16.3988 23.3787ZM15.0188 22.4127H13.8706V20.1163H15.0188C15.652 20.1163 16.167 20.6313 16.167 21.2645C16.167 21.8977 15.652 22.4127 15.0188 22.4127Z" />
		<path
			d="M22 24.6173H19.7495V23.0534C19.7647 23.0545 19.7799 23.0558 19.7954 23.0558H21.2651C21.6455 23.0558 21.9541 22.7473 21.9541 22.3668C21.9541 21.9863 21.6456 21.6778 21.2651 21.6778H19.7954C19.7798 21.6778 19.7647 21.6791 19.7495 21.6802V20.1163H22C22.3805 20.1163 22.689 19.8078 22.689 19.4273C22.689 19.0469 22.3806 18.7383 22 18.7383H19.0605C18.6801 18.7383 18.3716 19.0468 18.3716 19.4273V25.3062C18.3716 25.6867 18.68 25.9952 19.0605 25.9952H22C22.3805 25.9952 22.689 25.6867 22.689 25.3062C22.689 24.9257 22.3805 24.6173 22 24.6173Z" />
		<path
			d="M27.1441 24.6173H24.8936V23.0558H25.6744C26.0548 23.0558 26.3633 22.7473 26.3633 22.3668C26.3633 21.9863 26.0549 21.6778 25.6744 21.6778H24.8936V20.1163H27.1441C27.5245 20.1163 27.833 19.8078 27.833 19.4273C27.833 19.0469 27.5246 18.7383 27.1441 18.7383H24.2046C23.8241 18.7383 23.5156 19.0468 23.5156 19.4273V25.3062C23.5156 25.6867 23.8241 25.9952 24.2046 25.9952H27.1441C27.5245 25.9952 27.833 25.6867 27.833 25.3062C27.833 24.9257 27.5245 24.6173 27.1441 24.6173Z" />
	</symbol>
	<!-- Offer Icon -->
	<symbol id="offer_icon" viewBox="0 0 41 44">
		<path
			d="M39.6339 8.34944H28.3433L29.3312 7.44428C29.4037 7.37784 29.4687 7.30346 29.5251 7.22247C30.9688 5.15123 30.4965 2.26435 28.472 0.787099C27.5067 0.0827228 26.2907 -0.164661 25.1358 0.109181C23.9807 0.382729 22.9945 1.15134 22.4299 2.21775L20.5001 5.86296L18.5703 2.21775C18.0056 1.15119 17.0193 0.382436 15.8644 0.109034C14.7091 -0.164661 13.4931 0.0825759 12.5281 0.786952C10.5039 2.2642 10.0315 5.15109 11.475 7.22232C11.5316 7.30346 11.5967 7.37784 11.6689 7.44413L12.6568 8.3493H1.36655C0.63825 8.3493 0.0478516 8.95343 0.0478516 9.69866V18.2541C0.0478516 18.9993 0.63825 19.6034 1.36655 19.6034H1.71591V42.6506C1.71591 43.3958 2.30631 44 3.03461 44H37.9658C38.6941 44 39.2845 43.3958 39.2845 42.6506V19.6034H39.6339C40.3622 19.6034 40.9526 18.9993 40.9526 18.2541V9.69881C40.9526 8.95357 40.362 8.34944 39.6339 8.34944ZM24.7489 3.50318C24.9566 3.11057 25.3053 2.83893 25.7305 2.73825C25.8457 2.7109 25.961 2.69753 26.0754 2.69753C26.3831 2.69753 26.6817 2.79513 26.9407 2.98416C27.3478 3.28123 27.6173 3.72249 27.6999 4.22725C27.7753 4.6888 27.6861 5.15226 27.4484 5.54678L24.3894 8.34944H22.1834L24.7489 3.50318ZM13.3002 4.2274C13.3827 3.72293 13.6523 3.28137 14.0596 2.98431C14.4148 2.72502 14.8443 2.63756 15.2698 2.73839C15.6949 2.83893 16.0435 3.11072 16.2514 3.50333L18.8169 8.34944H16.6109L13.5518 5.54678C13.314 5.15241 13.2248 4.68866 13.3002 4.2274ZM15.5927 41.3014H4.35317V19.6036H15.5927V41.3014ZM22.77 41.3014H18.2301V19.6036H22.77V41.3014ZM36.6471 41.3014H25.4076V19.6036H36.6471V41.3014ZM38.3152 16.9049H2.68511V11.0482H38.315V16.9049H38.3152Z" />
	</symbol>
	<!-- Pay Icon -->
	<symbol id="pay_icon" viewBox="0 0 44 44">
		<path
			d="M39.6 13.2H4.4C1.96977 13.2 0 15.1697 0 17.6V37.4C0 39.8302 1.96977 41.8 4.4 41.8H39.6C42.0302 41.8 44 39.8302 44 37.4V17.6C44 15.1697 42.0302 13.2 39.6 13.2ZM41.8 37.4C41.8 38.6129 40.8129 39.6 39.6 39.6H4.4C3.18708 39.6 2.2 38.6129 2.2 37.4V17.6C2.2 16.3871 3.18708 15.4 4.4 15.4H39.6C40.8129 15.4 41.8 16.3871 41.8 17.6V37.4Z" />
		<path
			d="M33.6909 4.74168C32.6635 2.53876 30.0462 1.58614 27.8433 2.61352L9.8584 11H15.0636L28.7733 4.60753C29.8726 4.09491 31.1846 4.5723 31.6971 5.67161L34.1823 11H36.6096L33.6909 4.74168Z" />
		<path
			d="M13.1999 17.6H6.5999C5.38475 17.6 4.3999 18.5849 4.3999 19.8V24.2C4.3999 25.4152 5.38475 26.4 6.5999 26.4H13.1999C14.4151 26.4 15.3999 25.4152 15.3999 24.2V19.8C15.3999 18.5849 14.4151 17.6 13.1999 17.6ZM13.1999 24.2H6.5999V19.8H13.1999V24.2Z" />
		<path d="M26.3999 33H4.3999V35.2H26.3999V33Z" />
		<path
			d="M36.3001 30.8C35.4509 30.8 34.6846 31.13 34.1001 31.6565C33.5156 31.13 32.7493 30.8 31.9001 30.8C30.0778 30.8 28.6001 32.2777 28.6001 34.1C28.6001 35.9223 30.0778 37.4 31.9001 37.4C32.7493 37.4 33.5156 37.07 34.1001 36.5434C34.6846 37.07 35.4509 37.4 36.3001 37.4C38.1224 37.4 39.6001 35.9223 39.6001 34.1C39.6001 32.2777 38.1224 30.8 36.3001 30.8ZM31.9001 35.2C31.2936 35.2 30.8001 34.7064 30.8001 34.1C30.8001 33.4935 31.2936 33 31.9001 33C32.5066 33 33.0001 33.4935 33.0001 34.1C33.0001 34.7064 32.5066 35.2 31.9001 35.2ZM36.3001 35.2C35.6936 35.2 35.2001 34.7064 35.2001 34.1C35.2001 33.4935 35.6936 33 36.3001 33C36.9066 33 37.4001 33.4935 37.4001 34.1C37.4001 34.7064 36.9066 35.2 36.3001 35.2Z" />
	</symbol>
	<!-- Service Icon -->
	<symbol id="service_icon" viewBox="0 0 45 44">
		<g clip-path="url(#clip0_448_1123)">
			<path
				d="M15.3691 25.3596L14.2365 26.4346C14.0765 26.5865 13.9863 26.7951 13.9863 27.013V27.4717C13.9863 27.9169 14.3556 28.278 14.8111 28.278H21.5744C22.0304 28.278 22.3994 27.9169 22.3994 27.4717V26.878C22.3994 26.4328 22.0304 26.0716 21.5744 26.0716H17.8374L17.9405 25.9789C20.3828 23.6782 22.1115 21.8673 22.1115 19.5093C22.1115 17.624 20.8584 15.7217 18.0579 15.7217C16.8353 15.7217 15.6381 16.1054 14.6863 16.8016C14.3773 17.0283 14.27 17.4346 14.4291 17.7792L14.6371 18.229C14.7381 18.4477 14.9331 18.6111 15.1701 18.6747C15.4056 18.7383 15.6599 18.6954 15.8609 18.5581C16.4729 18.1402 17.1029 17.9282 17.734 17.9282C18.9622 17.9282 19.5848 18.5253 19.5848 19.6947C19.5684 21.2795 18.224 22.7021 15.3691 25.3596Z" />
			<path
				d="M27.6962 15.9181C27.6742 15.9162 27.6519 15.9153 27.63 15.9153H27.3781C27.1084 15.9153 26.8562 16.0441 26.7021 16.2598L21.651 23.3277C21.5542 23.4631 21.5024 23.6244 21.5024 23.7896V24.3562C21.5024 24.8015 21.8714 25.1626 22.3269 25.1626H26.9388V27.4717C26.9388 27.9169 27.3078 28.278 27.7632 28.278H28.5507C29.0059 28.278 29.3756 27.9169 29.3756 27.4717V25.1626H30.1886C30.6441 25.1626 31.0135 24.8015 31.0135 24.3562V23.8326C31.0135 23.3875 30.6441 23.0263 30.1886 23.0263H29.3756V16.7217C29.3756 16.2767 29.0059 15.9155 28.5507 15.9155H27.7632C27.7407 15.9155 27.7181 15.9163 27.6962 15.9181ZM26.9388 23.0263H24.4485C25.0812 22.1281 26.1629 20.5866 26.9388 19.4473V23.0263Z" />
			<path
				d="M22.5311 40.5121C12.8252 40.5121 4.92863 32.791 4.92863 23.3008C4.92863 14.3143 12.0094 6.91563 21.0018 6.15499V8.89857C21.0018 9.09347 21.1118 9.27261 21.2876 9.36413C21.3672 9.40571 21.4544 9.42608 21.5413 9.42608C21.6465 9.42608 21.7516 9.39594 21.8421 9.33637L28.2133 5.1509C28.3626 5.05296 28.452 4.88875 28.452 4.71296C28.452 4.53731 28.3626 4.37296 28.2133 4.27502L21.8421 0.089555C21.6767 -0.0191276 21.4634 -0.0300098 21.2875 0.0619309C21.1117 0.153593 21.0017 0.332731 21.0017 0.527494V2.65566C10.0401 3.42467 1.36133 12.3898 1.36133 23.3006C1.36133 34.7142 10.8582 43.9998 22.531 43.9998C27.9354 43.9998 33.0804 42.0088 37.0182 38.3937L34.5767 35.8509C31.3026 38.8567 27.0249 40.5121 22.5311 40.5121Z" />
			<path
				d="M40.6016 12.513C39.8723 11.3468 39.0195 10.2456 38.0676 9.24054L35.4502 11.6102C36.2424 12.4466 36.9515 13.3628 37.5585 14.3329L40.6016 12.513Z" />
			<path
				d="M39.9733 20.9633L43.508 20.4941C43.3194 19.1352 42.9908 17.7913 42.5312 16.4995L39.1621 17.6451C39.5437 18.7178 39.8165 19.8342 39.9733 20.9633Z" />
			<path
				d="M34.6729 6.34226C33.525 5.55497 32.2932 4.8779 31.0115 4.32947L29.5815 7.52479C30.6466 7.98059 31.6705 8.5434 32.6246 9.19773L34.6729 6.34226Z" />
			<path
				d="M36.1294 34.2306L38.8837 36.447C39.7746 35.3885 40.5602 34.2403 41.2184 33.0342L38.0715 31.392C37.5242 32.3948 36.8708 33.3499 36.1294 34.2306Z" />
			<path
				d="M40.0819 24.6317C39.9931 25.7697 39.7878 26.9008 39.4722 27.9931L42.9048 28.9421C43.2852 27.627 43.532 26.2661 43.639 24.8975L40.0819 24.6317Z" />
		</g>
		<defs>
			<clipPath id="clip0_448_1123">
				<rect />
			</clipPath>
		</defs>
	</symbol>
	<!-- Free Return -->
	<symbol id="return" viewBox="0 0 24 24" xmlns="http://www.w3.org/2000/svg">
		<path
			d="M12,4a8,8,0,0,1,4.985,1.758H15.242a1,1,0,0,0,0,2h4a1,1,0,0,0,1-1v-4a1,1,0,1,0-2,0V4.206A9.983,9.983,0,0,0,2,12a1,1,0,0,0,2,0A8.009,8.009,0,0,1,12,4Z" />
		<path
			d="M21,11a1,1,0,0,0-1,1A7.986,7.986,0,0,1,7.015,18.242H8.757a1,1,0,1,0,0-2h-4a1,1,0,0,0-1,1v4a1,1,0,0,0,2,0V19.794A9.984,9.984,0,0,0,22,12,1,1,0,0,0,21,11Z" />
	</symbol>
</svg>